<svg width="138" height="49" viewBox="0 0 138 49" fill="none" xmlns="http://www.w3.org/2000/svg">
<path d="M27.2955 14.8409C27.1136 13.0076 26.3333 11.5833 24.9545 10.5682C23.5758 9.55303 21.7045 9.04545 19.3409 9.04545C17.7348 9.04545 16.3788 9.27273 15.2727 9.72727C14.1667 10.1667 13.3182 10.7803 12.7273 11.5682C12.1515 12.3561 11.8636 13.25 11.8636 14.25C11.8333 15.0833 12.0076 15.8106 12.3864 16.4318C12.7803 17.053 13.3182 17.5909 14 18.0455C14.6818 18.4848 15.4697 18.8712 16.3636 19.2045C17.2576 19.5227 18.2121 19.7955 19.2273 20.0227L23.4091 21.0227C25.4394 21.4773 27.303 22.0833 29 22.8409C30.697 23.5985 32.1667 24.5303 33.4091 25.6364C34.6515 26.7424 35.6136 28.0455 36.2955 29.5455C36.9924 31.0455 37.3485 32.7652 37.3636 34.7045C37.3485 37.553 36.6212 40.0227 35.1818 42.1136C33.7576 44.1894 31.697 45.803 29 46.9545C26.3182 48.0909 23.0833 48.6591 19.2955 48.6591C15.5379 48.6591 12.2652 48.0833 9.47727 46.9318C6.70455 45.7803 4.53788 44.0758 2.97727 41.8182C1.43182 39.5455 0.621212 36.7348 0.545455 33.3864H10.0682C10.1742 34.947 10.6212 36.25 11.4091 37.2955C12.2121 38.3258 13.2803 39.1061 14.6136 39.6364C15.9621 40.1515 17.4848 40.4091 19.1818 40.4091C20.8485 40.4091 22.2955 40.1667 23.5227 39.6818C24.7652 39.197 25.7273 38.5227 26.4091 37.6591C27.0909 36.7955 27.4318 35.803 27.4318 34.6818C27.4318 33.6364 27.1212 32.7576 26.5 32.0455C25.8939 31.3333 25 30.7273 23.8182 30.2273C22.6515 29.7273 21.2197 29.2727 19.5227 28.8636L14.4545 27.5909C10.5303 26.6364 7.43182 25.1439 5.15909 23.1136C2.88636 21.0833 1.75758 18.3485 1.77273 14.9091C1.75758 12.0909 2.50758 9.62879 4.02273 7.52273C5.55303 5.41667 7.65152 3.77273 10.3182 2.59091C12.9848 1.40909 16.0152 0.81818 19.4091 0.81818C22.8636 0.81818 25.8788 1.40909 28.4545 2.59091C31.0455 3.77273 33.0606 5.41667 34.5 7.52273C35.9394 9.62879 36.6818 12.0682 36.7273 14.8409H27.2955Z" fill="url(#paint0_linear_28_66)"/>
<path d="M58.0739 48.6818C54.8617 48.6818 52.089 48.1061 49.7557 46.9545C47.4223 45.803 45.6269 44.2424 44.3693 42.2727C43.1269 40.2879 42.5057 38.0758 42.5057 35.6364C42.5057 33.8182 42.8693 32.2045 43.5966 30.7955C44.3239 29.3864 45.339 28.0909 46.642 26.9091C47.9451 25.7121 49.4602 24.5227 51.1875 23.3409L60.2102 17.4091C61.3769 16.6667 62.233 15.8864 62.7784 15.0682C63.3239 14.2348 63.5966 13.3333 63.5966 12.3636C63.5966 11.4394 63.2254 10.5833 62.483 9.79545C61.7405 9.00757 60.6875 8.62121 59.3239 8.63636C58.4148 8.63636 57.6269 8.84091 56.9602 9.25C56.2936 9.64394 55.7708 10.1667 55.392 10.8182C55.0284 11.4545 54.8466 12.1667 54.8466 12.9545C54.8466 13.9242 55.1193 14.9091 55.6648 15.9091C56.2102 16.9091 56.9375 17.9697 57.8466 19.0909C58.7557 20.197 59.7481 21.3939 60.8239 22.6818L82.892 48H72.8011L54.392 27.5C53.1799 26.1212 51.9678 24.6818 50.7557 23.1818C49.5587 21.6667 48.5587 20.0606 47.7557 18.3636C46.9527 16.6515 46.5511 14.7955 46.5511 12.7955C46.5511 10.5379 47.0739 8.50757 48.1193 6.70454C49.1799 4.90151 50.6648 3.47727 52.5739 2.43182C54.483 1.37121 56.7102 0.840908 59.2557 0.840908C61.7405 0.840908 63.8845 1.34848 65.6875 2.36364C67.5057 3.36364 68.8996 4.69697 69.8693 6.36364C70.8542 8.01515 71.3466 9.83333 71.3466 11.8182C71.3466 14.0152 70.8011 16.0076 69.7102 17.7955C68.6345 19.5682 67.1193 21.1591 65.1648 22.5682L55.6648 29.4091C54.3769 30.3485 53.4223 31.3106 52.8011 32.2955C52.1951 33.2652 51.892 34.197 51.892 35.0909C51.892 36.197 52.1648 37.1894 52.7102 38.0682C53.2557 38.947 54.0284 39.6439 55.0284 40.1591C56.0284 40.6591 57.2027 40.9091 58.5511 40.9091C60.1875 40.9091 61.8011 40.5379 63.392 39.7955C64.9981 39.0379 66.4527 37.9697 67.7557 36.5909C69.0739 35.197 70.1269 33.5455 70.9148 31.6364C71.7027 29.7273 72.0966 27.6136 72.0966 25.2955H80.1193C80.1193 28.1439 79.8087 30.7121 79.1875 33C78.5663 35.2727 77.7027 37.2576 76.5966 38.9545C75.4905 40.6364 74.2254 42.0152 72.8011 43.0909C72.3466 43.3788 71.9072 43.6515 71.483 43.9091C71.0587 44.1667 70.6193 44.4394 70.1648 44.7273C68.4375 46.1212 66.5057 47.1288 64.3693 47.75C62.2481 48.3712 60.1496 48.6818 58.0739 48.6818Z" fill="#0D0C0C"/>
<path d="M87.108 1.45454H99.2443L112.062 32.7273H112.608L125.426 1.45454H137.562V48H128.017V17.7045H127.631L115.585 47.7727H109.085L97.0398 17.5909H96.6534V48H87.108V1.45454Z" fill="url(#paint1_linear_28_66)"/>
<defs>
<linearGradient id="paint0_linear_28_66" x1="-29.0165" y1="-10.3721" x2="52.3538" y2="109.625" gradientUnits="userSpaceOnUse">
<stop offset="0.23408" stop-color="#FD9E47"/>
<stop offset="0.59375" stop-color="#1A1918"/>
</linearGradient>
<linearGradient id="paint1_linear_28_66" x1="99" y1="-14" x2="173.746" y2="94.2105" gradientUnits="userSpaceOnUse">
<stop offset="0.119792" stop-color="#FD9E47"/>
<stop offset="0.442708" stop-color="#121111"/>
</linearGradient>
</defs>
</svg>
